<?xml version="1.0" encoding="UTF-8"?>
<svg version="1.1" viewBox="0 0 2048 2048" width="97" height="25" xmlns="http://www.w3.org/2000/svg">
<path transform="translate(604,941)" d="m0 0h283l7 1 1 1v162l-1 1h-377v-160l1-3 17-1zm192 25-15 4-10 9-8 14-5 16-1 8v14l2 14 6 15 10 12 9 5 12 3 11 1h17l14-3 14-7 8-8 5-9 4-12 1-6v-27l-3-11-6-12-9-10-10-6-9-3-6-1zm-255 1v112l2 1h30l42-1 14-3 5-6 4-13v-19l-4-13v-10l2-16-2-13-6-15-6-2-24-2zm151 0-31 1-6 1-1 3-1 15v88l3 4 4 1h23l3-1 1-34 12 2 15 30 5 2 8 1h17l3-1-1-7-5-13-4-8-1-3v-7l1-4 4-2 4-6 3-11 2-12-3-16-4-10-5-6-8-4-10-2-16-1z" fill="#070707"/>
<path transform="translate(1046,968)" d="m0 0h36l13 4 10 8 8 14 4 16v28l-3 13-6 11-7 8-10 6-9 3-14 2h-12l-14-2-12-6-9-9-8-14-3-13-1-16 4-20 8-17 8-9 12-6zm7 17-8 3-5 4-4 9-3 13v21l4 13 6 8 7 5 8 2h11l11-4 7-5 5-10 2-12v-17l-2-12-5-10-5-4-11-4z" fill="#0A0A0A"/>
<path transform="translate(1447,968)" d="m0 0h25l46 1 3 2 1 3v9l-2 2h-55v30h47l3 2 2 12-1 3-2 1h-49l-1 8v15l1 4 2 1 42 1 10 1 4 5 1 9-6 2h-74l-2-1v-43l1-62 1-4z" fill="#0B0B0B"/>
<path transform="translate(1351,968)" d="m0 0h28l19 1 12 3 6 4 5 6 4 9 1 7v11l-2 16-3 9-6 5-11 3-13 1h-31l2 33-4 3h-15l-3-3-1-5v-96l2-6zm12 17-2 2-1 7v20l1 10 2 2 6 1h15l15-3 5-4 2-4v-17l-3-7-5-4-5-2-6-1z" fill="#0B0B0B"/>
<path transform="translate(1317,965)" d="m0 0h4l1 2v7l-15 27-10 17-8 17-3 11-1 32-2 2h-18l-2-4v-27l-4-13-12-27-12-23-7-11-1-6 5-2 9 1 7 2 4 5 16 32 5 9 4-5 11-18 11-17 8-7z" fill="#0A0A0A"/>
<path transform="translate(911,967)" d="m0 0 90 1 3 2v14l-6 2-27 2-1 35-1 55-3 2h-14l-4-2-1-20v-71h-12l-23-1-2-3v-14z" fill="#111"/>
<path transform="translate(1126,969)" d="m0 0h88l4 4-1 7-4 4-3 1-26 2-1 2-1 9-1 80-2 1h-18l-3-1-1-7 1-19v-64l-3-2h-27l-3-4-1-4v-8z" fill="#0C0C0C"/>
<path transform="translate(808,993)" d="m0 0h10l9 3 5 4 5 10 1 5v16l-3 10-6 8-8 4h-14l-10-4-6-7-2-7v-20l4-10 6-8z" fill="#0E0E0E"/>
<path transform="translate(695,993)" d="m0 0h15l5 3 2 5v12l-3 5-4 3-3 1h-11l-7-3-3-3-2-8 1-8 5-5z" fill="#040404"/>
<path transform="translate(576,1035)" d="m0 0h27l4 2 1 2v13l-2 3-3 1-12 1h-13l-5-3-1-12 3-6z" fill="#121212"/>
<path transform="translate(574,994)" d="m0 0h24l8 2 1 1v8l-3 5-8 2h-17l-5-3-3-8 1-6z" fill="#0D0D0D"/>
<path transform="translate(889,942)" d="m0 0h5l1 1v162l-3 1 1-13v-66l-2-39v-45z" fill="#FEFEFE"/>
<path transform="translate(765,987)" d="m0 0 1 2-6 16-2 12v14l2 14 6 15 9 11 9 5 12 3 11 1v1h-15l-11-3-8-5-6-7-8-16-3-10-2-15v-10l3-12z" fill="#FEFEFE"/>
<path transform="translate(628,972)" d="m0 0 4 2 4 8 2 20 1 33v19h-1l-1-16-4-13v-10l2-16-2-13z" fill="#FEFEFE"/>
<path transform="translate(540,966)" d="m0 0h73l11 2 2 2-28-2-57-1v81h-1l-1-38v-22z" fill="#FEFEFE"/>
<path transform="translate(1341,969)" d="m0 0h6l-4 4-1 6-1 37v42l2 13 4 8-6-1-2-7v-96z" fill="#FEFEFE"/>
<path transform="translate(911,967)" d="m0 0 90 1 3 3-94-1z" fill="#FEFEFE"/>
<path transform="translate(799,997)" d="m0 0 2 1-5 8-3 14v23l-2-1-2-7v-20l4-10z" fill="#FEFEFE"/>
<path transform="translate(1443,1025)" d="m0 0h1l1 32 1 15 1 4 12 2v1h-15l-2-1v-43z" fill="#FEFEFE"/>
<path transform="translate(870,1010)" d="m0 0h1l1 11v17l-2 11-7 13-9 10-4 2-3-1 8-6 6-7 4-8 4-16z" fill="#FEFEFE"/>
<path transform="translate(1013 1e3)" d="m0 0h1l-1 28 2 17 2 10-3-4-3-9-2-17 1-12z" fill="#FEFEFE"/>
<path transform="translate(1243,997)" d="m0 0 4 5 11 24 6 15 1 14h-1l-3-14-9-21-9-19z" fill="#FBFBFB"/>
<path transform="translate(1232,967)" d="m0 0 9 1 7 2 4 5 6 12-1 2-7-11-7-6-2-1h-8l-3 1-1 3-2-3 1-4z" fill="#FEFEFE"/>
<path transform="translate(686,1047)" d="m0 0 8 2h6l-2 2-7 2-2 2v11l1 8-3 1-1-6z" fill="#FEFEFE"/>
<path transform="translate(713,995)" d="m0 0 3 3 1 3v12l-3 5-3 2z" fill="#FEFEFE"/>
<path transform="translate(1506,1015)" d="m0 0h6l3 2 2 12-1 3-2 1h-6l3-3v-9l-1-4z" fill="#F4F4F4"/>
<path transform="translate(1114,1044)" d="m0 0 1 4-7 14-7 8-4 3-2-1 8-10h2l2-5z" fill="#FEFEFE"/>
<path transform="translate(688,996)" d="m0 0h1v20l2 1-1 3-4-4-2-8 1-8z" fill="#F3F3F3"/>
<path transform="translate(1284,1053)" d="m0 0h1v25l-2 2-4-1 3-9z" fill="#FEFEFE"/>
<path transform="translate(911,983)" d="m0 0h10l26 3v1h-12l-23-1z" fill="#FEFEFE"/>
<path transform="translate(1071,985)" d="m0 0 10 1 6 4 4 5 2 6v6l-7-14-8-5-7-2z" fill="#FEFEFE"/>
<path transform="translate(1523,1071)" d="m0 0h1v6l-6 2h-28v-1l24-1 7-3z" fill="#FEFEFE"/>
<path transform="translate(1317,965)" d="m0 0h4l1 6h-4l-1-1h-7l-4 1 3-3z" fill="#FEFEFE"/>
<path transform="translate(574,1037)" d="m0 0h1l1 16 7 3v1l-8-1-2-2-1-12z" fill="#FEFEFE"/>
<path transform="translate(1215,973)" d="m0 0h3l-1 7-4 4-5 1 2-4z" fill="#FEFEFE"/>
<path transform="translate(571,999)" d="m0 0 6 2v10l-4-4z" fill="#FEFEFE"/>
<path transform="translate(1090,1047)" d="m0 0 1 3-5 8-9 4-4-1 10-5 5-5z" fill="#FEFEFE"/>
<path transform="translate(601,995)" d="m0 0 5 1 1 1v8l-2 2-3-6 1-5z" fill="#BABABA"/>
<path transform="translate(796,1047)" d="m0 0 17 3v2l-6 1-10-4z" fill="#FEFEFE"/>
<path transform="translate(1038,1050)" d="m0 0 5 5 7 5 3 2-8-1-6-7z" fill="#FEFEFE"/>
<path transform="translate(1187,977)" d="m0 0h2l3 9h-8z" fill="#FEFEFE"/>
<path transform="translate(1359,1053)" d="m0 0 1 2v13l-2-1-1-3v-8z" fill="#FEFEFE"/>
<path transform="translate(1519,970)" d="m0 0 2 1 1 3v9l-4 2 1-4z" fill="#FEFEFE"/>
<path transform="translate(517,1096)" d="m0 0 2 4 3 4 3 2h-8z" fill="#FEFEFE"/>
<path transform="translate(1126,969)" d="m0 0 4 1-3 3-1 9-2-4v-8z" fill="#FEFEFE"/>
<path transform="translate(1412,974)" d="m0 0 4 2 5 6 2 6-4-4-6-8z" fill="#FEFEFE"/>
</svg>
