<?xml version="1.0" encoding="UTF-8"?>
<svg xmlns="http://www.w3.org/2000/svg" xmlns:xlink="http://www.w3.org/1999/xlink" width="25px" height="25px" viewBox="0 0 25 25" version="1.1">
<g id="surface1">
<path style=" stroke:none;fill-rule:nonzero;fill:rgb(2.745098%,2.745098%,2.745098%);fill-opacity:1;" d="M 7.375 11.488281 L 10.828125 11.488281 L 10.914062 11.5 L 10.925781 11.511719 L 10.925781 13.488281 L 10.914062 13.5 L 6.3125 13.5 L 6.3125 11.546875 L 6.324219 11.511719 L 6.53125 11.5 Z M 9.71875 11.792969 L 9.535156 11.839844 L 9.410156 11.949219 L 9.3125 12.121094 L 9.253906 12.316406 L 9.242188 12.414062 L 9.242188 12.585938 L 9.265625 12.757812 L 9.339844 12.9375 L 9.460938 13.085938 L 9.570312 13.148438 L 9.71875 13.183594 L 9.851562 13.195312 L 10.058594 13.195312 L 10.230469 13.160156 L 10.398438 13.074219 L 10.5 12.976562 L 10.558594 12.867188 L 10.609375 12.71875 L 10.621094 12.648438 L 10.621094 12.316406 L 10.582031 12.183594 L 10.511719 12.035156 L 10.398438 11.914062 L 10.277344 11.839844 L 10.167969 11.804688 L 10.09375 11.792969 Z M 6.605469 11.804688 L 6.605469 13.171875 L 6.628906 13.183594 L 6.996094 13.183594 L 7.507812 13.171875 L 7.679688 13.132812 L 7.738281 13.0625 L 7.789062 12.902344 L 7.789062 12.671875 L 7.738281 12.511719 L 7.738281 12.390625 L 7.765625 12.195312 L 7.738281 12.035156 L 7.664062 11.851562 L 7.59375 11.828125 L 7.300781 11.804688 Z M 8.445312 11.804688 L 8.070312 11.816406 L 7.996094 11.828125 L 7.984375 11.867188 L 7.972656 12.046875 L 7.972656 13.121094 L 8.007812 13.171875 L 8.054688 13.183594 L 8.335938 13.183594 L 8.375 13.171875 L 8.386719 12.757812 L 8.53125 12.78125 L 8.714844 13.148438 L 8.777344 13.171875 L 8.875 13.183594 L 9.082031 13.183594 L 9.117188 13.171875 L 9.105469 13.085938 L 9.046875 12.925781 L 8.996094 12.828125 L 8.984375 12.792969 L 8.984375 12.707031 L 8.996094 12.660156 L 9.046875 12.632812 L 9.09375 12.5625 L 9.132812 12.425781 L 9.15625 12.28125 L 9.117188 12.085938 L 9.070312 11.960938 L 9.007812 11.890625 L 8.910156 11.839844 L 8.789062 11.816406 L 8.59375 11.804688 Z M 8.445312 11.804688 "/>
<path style=" stroke:none;fill-rule:nonzero;fill:rgb(3.921569%,3.921569%,3.921569%);fill-opacity:1;" d="M 12.769531 11.816406 L 13.207031 11.816406 L 13.367188 11.867188 L 13.488281 11.960938 L 13.585938 12.132812 L 13.636719 12.328125 L 13.636719 12.671875 L 13.597656 12.828125 L 13.523438 12.964844 L 13.441406 13.0625 L 13.316406 13.132812 L 13.207031 13.171875 L 13.039062 13.195312 L 12.890625 13.195312 L 12.71875 13.171875 L 12.574219 13.097656 L 12.464844 12.988281 L 12.367188 12.816406 L 12.328125 12.660156 L 12.316406 12.464844 L 12.367188 12.21875 L 12.464844 12.011719 L 12.5625 11.902344 L 12.707031 11.828125 Z M 12.855469 12.023438 L 12.757812 12.0625 L 12.695312 12.109375 L 12.648438 12.21875 L 12.609375 12.378906 L 12.609375 12.632812 L 12.660156 12.792969 L 12.730469 12.890625 L 12.816406 12.953125 L 12.914062 12.976562 L 13.050781 12.976562 L 13.183594 12.925781 L 13.269531 12.867188 L 13.328125 12.742188 L 13.355469 12.597656 L 13.355469 12.390625 L 13.328125 12.242188 L 13.269531 12.121094 L 13.207031 12.074219 L 13.074219 12.023438 Z M 12.855469 12.023438 "/>
<path style=" stroke:none;fill-rule:nonzero;fill:rgb(4.313725%,4.313725%,4.313725%);fill-opacity:1;" d="M 17.664062 11.816406 L 17.96875 11.816406 L 18.53125 11.828125 L 18.566406 11.851562 L 18.578125 11.890625 L 18.578125 12 L 18.554688 12.023438 L 17.882812 12.023438 L 17.882812 12.390625 L 18.457031 12.390625 L 18.492188 12.414062 L 18.519531 12.5625 L 18.507812 12.597656 L 18.480469 12.609375 L 17.882812 12.609375 L 17.871094 12.707031 L 17.871094 12.890625 L 17.882812 12.9375 L 17.90625 12.953125 L 18.421875 12.964844 L 18.542969 12.976562 L 18.589844 13.039062 L 18.601562 13.148438 L 18.53125 13.171875 L 17.625 13.171875 L 17.601562 13.160156 L 17.601562 12.632812 L 17.613281 11.878906 L 17.625 11.828125 Z M 17.664062 11.816406 "/>
<path style=" stroke:none;fill-rule:nonzero;fill:rgb(4.313725%,4.313725%,4.313725%);fill-opacity:1;" d="M 16.492188 11.816406 L 16.832031 11.816406 L 17.066406 11.828125 L 17.210938 11.867188 L 17.285156 11.914062 L 17.347656 11.988281 L 17.394531 12.097656 L 17.40625 12.183594 L 17.40625 12.316406 L 17.382812 12.511719 L 17.347656 12.621094 L 17.273438 12.683594 L 17.140625 12.71875 L 16.980469 12.730469 L 16.601562 12.730469 L 16.625 13.132812 L 16.578125 13.171875 L 16.394531 13.171875 L 16.359375 13.132812 L 16.34375 13.074219 L 16.34375 11.902344 L 16.371094 11.828125 Z M 16.636719 12.023438 L 16.613281 12.046875 L 16.601562 12.132812 L 16.601562 12.378906 L 16.613281 12.5 L 16.636719 12.523438 L 16.710938 12.535156 L 16.894531 12.535156 L 17.078125 12.5 L 17.140625 12.453125 L 17.164062 12.402344 L 17.164062 12.195312 L 17.125 12.109375 L 17.066406 12.0625 L 17.003906 12.035156 L 16.929688 12.023438 Z M 16.636719 12.023438 "/>
<path style=" stroke:none;fill-rule:nonzero;fill:rgb(3.921569%,3.921569%,3.921569%);fill-opacity:1;" d="M 16.078125 11.78125 L 16.125 11.78125 L 16.136719 11.804688 L 16.136719 11.890625 L 15.953125 12.21875 L 15.832031 12.425781 L 15.734375 12.632812 L 15.699219 12.769531 L 15.6875 13.160156 L 15.660156 13.183594 L 15.441406 13.183594 L 15.417969 13.132812 L 15.417969 12.804688 L 15.367188 12.648438 L 15.222656 12.316406 L 15.074219 12.035156 L 14.992188 11.902344 L 14.976562 11.828125 L 15.039062 11.804688 L 15.148438 11.816406 L 15.234375 11.839844 L 15.28125 11.902344 L 15.476562 12.292969 L 15.539062 12.402344 L 15.589844 12.339844 L 15.722656 12.121094 L 15.855469 11.914062 L 15.953125 11.828125 Z M 16.078125 11.78125 "/>
<path style=" stroke:none;fill-rule:nonzero;fill:rgb(6.666667%,6.666667%,6.666667%);fill-opacity:1;" d="M 11.121094 11.804688 L 12.21875 11.816406 L 12.257812 11.839844 L 12.257812 12.011719 L 12.183594 12.035156 L 11.851562 12.0625 L 11.839844 12.488281 L 11.828125 13.160156 L 11.792969 13.183594 L 11.621094 13.183594 L 11.570312 13.160156 L 11.558594 12.914062 L 11.558594 12.046875 L 11.414062 12.046875 L 11.132812 12.035156 L 11.109375 12 L 11.109375 11.828125 Z M 11.121094 11.804688 "/>
<path style=" stroke:none;fill-rule:nonzero;fill:rgb(4.705882%,4.705882%,4.705882%);fill-opacity:1;" d="M 13.746094 11.828125 L 14.820312 11.828125 L 14.867188 11.878906 L 14.855469 11.960938 L 14.808594 12.011719 L 14.769531 12.023438 L 14.453125 12.046875 L 14.441406 12.074219 L 14.429688 12.183594 L 14.417969 13.160156 L 14.390625 13.171875 L 14.171875 13.171875 L 14.136719 13.160156 L 14.125 13.074219 L 14.136719 12.84375 L 14.136719 12.0625 L 14.097656 12.035156 L 13.769531 12.035156 L 13.734375 11.988281 L 13.71875 11.9375 L 13.71875 11.839844 Z M 13.746094 11.828125 "/>
<path style=" stroke:none;fill-rule:nonzero;fill:rgb(5.490196%,5.490196%,5.490196%);fill-opacity:1;" d="M 9.863281 12.121094 L 9.984375 12.121094 L 10.09375 12.15625 L 10.15625 12.207031 L 10.21875 12.328125 L 10.230469 12.390625 L 10.230469 12.585938 L 10.191406 12.707031 L 10.121094 12.804688 L 10.023438 12.855469 L 9.851562 12.855469 L 9.730469 12.804688 L 9.65625 12.71875 L 9.632812 12.632812 L 9.632812 12.390625 L 9.679688 12.269531 L 9.753906 12.171875 Z M 9.863281 12.121094 "/>
<path style=" stroke:none;fill-rule:nonzero;fill:rgb(1.568627%,1.568627%,1.568627%);fill-opacity:1;" d="M 8.484375 12.121094 L 8.667969 12.121094 L 8.726562 12.15625 L 8.753906 12.21875 L 8.753906 12.367188 L 8.714844 12.425781 L 8.667969 12.464844 L 8.628906 12.476562 L 8.496094 12.476562 L 8.410156 12.4375 L 8.375 12.402344 L 8.351562 12.304688 L 8.363281 12.207031 L 8.421875 12.144531 Z M 8.484375 12.121094 "/>
<path style=" stroke:none;fill-rule:nonzero;fill:rgb(7.058824%,7.058824%,7.058824%);fill-opacity:1;" d="M 7.03125 12.632812 L 7.359375 12.632812 L 7.410156 12.660156 L 7.421875 12.683594 L 7.421875 12.84375 L 7.398438 12.878906 L 7.359375 12.890625 L 7.214844 12.902344 L 7.054688 12.902344 L 6.996094 12.867188 L 6.984375 12.71875 L 7.019531 12.648438 Z M 7.03125 12.632812 "/>
<path style=" stroke:none;fill-rule:nonzero;fill:rgb(5.098039%,5.098039%,5.098039%);fill-opacity:1;" d="M 7.007812 12.132812 L 7.300781 12.132812 L 7.398438 12.15625 L 7.410156 12.171875 L 7.410156 12.269531 L 7.375 12.328125 L 7.273438 12.351562 L 7.066406 12.351562 L 7.007812 12.316406 L 6.96875 12.21875 L 6.984375 12.144531 Z M 7.007812 12.132812 "/>
<path style=" stroke:none;fill-rule:nonzero;fill:rgb(99.607843%,99.607843%,99.607843%);fill-opacity:1;" d="M 10.851562 11.5 L 10.914062 11.5 L 10.925781 11.511719 L 10.925781 13.488281 L 10.890625 13.5 L 10.902344 13.34375 L 10.902344 12.535156 L 10.875 12.0625 L 10.875 11.511719 Z M 10.851562 11.5 "/>
<path style=" stroke:none;fill-rule:nonzero;fill:rgb(99.607843%,99.607843%,99.607843%);fill-opacity:1;" d="M 9.339844 12.046875 L 9.351562 12.074219 L 9.277344 12.269531 L 9.253906 12.414062 L 9.253906 12.585938 L 9.277344 12.757812 L 9.351562 12.9375 L 9.460938 13.074219 L 9.570312 13.132812 L 9.71875 13.171875 L 9.851562 13.183594 L 9.851562 13.195312 L 9.667969 13.195312 L 9.535156 13.160156 L 9.4375 13.097656 L 9.363281 13.011719 L 9.265625 12.816406 L 9.226562 12.695312 L 9.203125 12.511719 L 9.203125 12.390625 L 9.242188 12.242188 Z M 9.339844 12.046875 "/>
<path style=" stroke:none;fill-rule:nonzero;fill:rgb(99.607843%,99.607843%,99.607843%);fill-opacity:1;" d="M 7.664062 11.867188 L 7.714844 11.890625 L 7.765625 11.988281 L 7.789062 12.230469 L 7.800781 12.632812 L 7.800781 12.867188 L 7.789062 12.867188 L 7.777344 12.671875 L 7.726562 12.511719 L 7.726562 12.390625 L 7.75 12.195312 L 7.726562 12.035156 Z M 7.664062 11.867188 "/>
<path style=" stroke:none;fill-rule:nonzero;fill:rgb(99.607843%,99.607843%,99.607843%);fill-opacity:1;" d="M 6.59375 11.792969 L 7.484375 11.792969 L 7.617188 11.816406 L 7.640625 11.839844 L 7.300781 11.816406 L 6.605469 11.804688 L 6.605469 12.792969 L 6.59375 12.792969 L 6.578125 12.328125 L 6.578125 12.0625 Z M 6.59375 11.792969 "/>
<path style=" stroke:none;fill-rule:nonzero;fill:rgb(99.607843%,99.607843%,99.607843%);fill-opacity:1;" d="M 16.371094 11.828125 L 16.441406 11.828125 L 16.394531 11.878906 L 16.382812 11.949219 L 16.371094 12.402344 L 16.371094 12.914062 L 16.394531 13.074219 L 16.441406 13.171875 L 16.371094 13.160156 L 16.34375 13.074219 L 16.34375 11.902344 Z M 16.371094 11.828125 "/>
<path style=" stroke:none;fill-rule:nonzero;fill:rgb(99.607843%,99.607843%,99.607843%);fill-opacity:1;" d="M 11.121094 11.804688 L 12.21875 11.816406 L 12.257812 11.851562 L 11.109375 11.839844 Z M 11.121094 11.804688 "/>
<path style=" stroke:none;fill-rule:nonzero;fill:rgb(99.607843%,99.607843%,99.607843%);fill-opacity:1;" d="M 9.753906 12.171875 L 9.777344 12.183594 L 9.71875 12.28125 L 9.679688 12.453125 L 9.679688 12.730469 L 9.65625 12.71875 L 9.632812 12.632812 L 9.632812 12.390625 L 9.679688 12.269531 Z M 9.753906 12.171875 "/>
<path style=" stroke:none;fill-rule:nonzero;fill:rgb(99.607843%,99.607843%,99.607843%);fill-opacity:1;" d="M 17.613281 12.511719 L 17.625 12.511719 L 17.640625 12.902344 L 17.652344 13.085938 L 17.664062 13.132812 L 17.808594 13.160156 L 17.808594 13.171875 L 17.625 13.171875 L 17.601562 13.160156 L 17.601562 12.632812 Z M 17.613281 12.511719 "/>
<path style=" stroke:none;fill-rule:nonzero;fill:rgb(99.607843%,99.607843%,99.607843%);fill-opacity:1;" d="M 10.621094 12.328125 L 10.632812 12.328125 L 10.644531 12.464844 L 10.644531 12.671875 L 10.621094 12.804688 L 10.535156 12.964844 L 10.425781 13.085938 L 10.375 13.109375 L 10.339844 13.097656 L 10.4375 13.023438 L 10.511719 12.9375 L 10.558594 12.84375 L 10.609375 12.648438 Z M 10.621094 12.328125 "/>
<path style=" stroke:none;fill-rule:nonzero;fill:rgb(99.607843%,99.607843%,99.607843%);fill-opacity:1;" d="M 12.367188 12.207031 L 12.378906 12.207031 L 12.367188 12.546875 L 12.390625 12.757812 L 12.414062 12.878906 L 12.378906 12.828125 L 12.339844 12.71875 L 12.316406 12.511719 L 12.328125 12.367188 Z M 12.367188 12.207031 "/>
<path style=" stroke:none;fill-rule:nonzero;fill:rgb(98.431373%,98.431373%,98.431373%);fill-opacity:1;" d="M 15.171875 12.171875 L 15.222656 12.230469 L 15.355469 12.523438 L 15.429688 12.707031 L 15.441406 12.878906 L 15.429688 12.878906 L 15.394531 12.707031 L 15.28125 12.453125 L 15.171875 12.21875 Z M 15.171875 12.171875 "/>
<path style=" stroke:none;fill-rule:nonzero;fill:rgb(99.607843%,99.607843%,99.607843%);fill-opacity:1;" d="M 15.039062 11.804688 L 15.148438 11.816406 L 15.234375 11.839844 L 15.28125 11.902344 L 15.355469 12.046875 L 15.34375 12.074219 L 15.257812 11.9375 L 15.171875 11.867188 L 15.148438 11.851562 L 15.050781 11.851562 L 15.015625 11.867188 L 15.003906 11.902344 L 14.976562 11.867188 L 14.992188 11.816406 Z M 15.039062 11.804688 "/>
<path style=" stroke:none;fill-rule:nonzero;fill:rgb(99.607843%,99.607843%,99.607843%);fill-opacity:1;" d="M 8.375 12.78125 L 8.472656 12.804688 L 8.546875 12.804688 L 8.519531 12.828125 L 8.433594 12.855469 L 8.410156 12.878906 L 8.410156 13.011719 L 8.421875 13.109375 L 8.386719 13.121094 L 8.375 13.050781 Z M 8.375 12.78125 "/>
<path style=" stroke:none;fill-rule:nonzero;fill:rgb(99.607843%,99.607843%,99.607843%);fill-opacity:1;" d="M 8.703125 12.144531 L 8.742188 12.183594 L 8.753906 12.21875 L 8.753906 12.367188 L 8.714844 12.425781 L 8.679688 12.453125 Z M 8.703125 12.144531 "/>
<path style=" stroke:none;fill-rule:nonzero;fill:rgb(95.686275%,95.686275%,95.686275%);fill-opacity:1;" d="M 18.382812 12.390625 L 18.457031 12.390625 L 18.492188 12.414062 L 18.519531 12.5625 L 18.507812 12.597656 L 18.480469 12.609375 L 18.40625 12.609375 L 18.445312 12.574219 L 18.445312 12.464844 L 18.433594 12.414062 Z M 18.382812 12.390625 "/>
<path style=" stroke:none;fill-rule:nonzero;fill:rgb(99.607843%,99.607843%,99.607843%);fill-opacity:1;" d="M 13.597656 12.742188 L 13.609375 12.792969 L 13.523438 12.964844 L 13.441406 13.0625 L 13.390625 13.097656 L 13.367188 13.085938 L 13.464844 12.964844 L 13.488281 12.964844 L 13.511719 12.902344 Z M 13.597656 12.742188 "/>
<path style=" stroke:none;fill-rule:nonzero;fill:rgb(95.294118%,95.294118%,95.294118%);fill-opacity:1;" d="M 8.398438 12.15625 L 8.410156 12.15625 L 8.410156 12.402344 L 8.433594 12.414062 L 8.421875 12.453125 L 8.375 12.402344 L 8.351562 12.304688 L 8.363281 12.207031 Z M 8.398438 12.15625 "/>
<path style=" stroke:none;fill-rule:nonzero;fill:rgb(99.607843%,99.607843%,99.607843%);fill-opacity:1;" d="M 15.671875 12.855469 L 15.6875 12.855469 L 15.6875 13.160156 L 15.660156 13.183594 L 15.613281 13.171875 L 15.648438 13.0625 Z M 15.671875 12.855469 "/>
<path style=" stroke:none;fill-rule:nonzero;fill:rgb(99.607843%,99.607843%,99.607843%);fill-opacity:1;" d="M 11.121094 12 L 11.242188 12 L 11.558594 12.035156 L 11.558594 12.046875 L 11.414062 12.046875 L 11.132812 12.035156 Z M 11.121094 12 "/>
<path style=" stroke:none;fill-rule:nonzero;fill:rgb(99.607843%,99.607843%,99.607843%);fill-opacity:1;" d="M 13.074219 12.023438 L 13.195312 12.035156 L 13.269531 12.085938 L 13.316406 12.144531 L 13.34375 12.21875 L 13.34375 12.292969 L 13.257812 12.121094 L 13.160156 12.0625 L 13.074219 12.035156 Z M 13.074219 12.023438 "/>
<path style=" stroke:none;fill-rule:nonzero;fill:rgb(99.607843%,99.607843%,99.607843%);fill-opacity:1;" d="M 18.589844 13.074219 L 18.601562 13.074219 L 18.601562 13.148438 L 18.53125 13.171875 L 18.1875 13.171875 L 18.1875 13.160156 L 18.480469 13.148438 L 18.566406 13.109375 Z M 18.589844 13.074219 "/>
<path style=" stroke:none;fill-rule:nonzero;fill:rgb(99.607843%,99.607843%,99.607843%);fill-opacity:1;" d="M 16.078125 11.78125 L 16.125 11.78125 L 16.136719 11.851562 L 16.089844 11.851562 L 16.078125 11.839844 L 15.992188 11.839844 L 15.941406 11.851562 L 15.980469 11.816406 Z M 16.078125 11.78125 "/>
<path style=" stroke:none;fill-rule:nonzero;fill:rgb(99.607843%,99.607843%,99.607843%);fill-opacity:1;" d="M 7.007812 12.660156 L 7.019531 12.660156 L 7.03125 12.855469 L 7.117188 12.890625 L 7.117188 12.902344 L 7.019531 12.890625 L 6.996094 12.867188 L 6.984375 12.71875 Z M 7.007812 12.660156 "/>
<path style=" stroke:none;fill-rule:nonzero;fill:rgb(99.607843%,99.607843%,99.607843%);fill-opacity:1;" d="M 14.832031 11.878906 L 14.867188 11.878906 L 14.855469 11.960938 L 14.808594 12.011719 L 14.746094 12.023438 L 14.769531 11.976562 Z M 14.832031 11.878906 "/>
<path style=" stroke:none;fill-rule:nonzero;fill:rgb(99.607843%,99.607843%,99.607843%);fill-opacity:1;" d="M 6.96875 12.195312 L 7.042969 12.21875 L 7.042969 12.339844 L 6.996094 12.292969 Z M 6.96875 12.195312 "/>
<path style=" stroke:none;fill-rule:nonzero;fill:rgb(99.607843%,99.607843%,99.607843%);fill-opacity:1;" d="M 13.304688 12.78125 L 13.316406 12.816406 L 13.257812 12.914062 L 13.148438 12.964844 L 13.097656 12.953125 L 13.21875 12.890625 L 13.28125 12.828125 Z M 13.304688 12.78125 "/>
<path style=" stroke:none;fill-rule:nonzero;fill:rgb(72.941176%,72.941176%,72.941176%);fill-opacity:1;" d="M 7.335938 12.144531 L 7.398438 12.15625 L 7.410156 12.171875 L 7.410156 12.269531 L 7.386719 12.292969 L 7.347656 12.21875 L 7.359375 12.15625 Z M 7.335938 12.144531 "/>
<path style=" stroke:none;fill-rule:nonzero;fill:rgb(99.607843%,99.607843%,99.607843%);fill-opacity:1;" d="M 9.71875 12.78125 L 9.925781 12.816406 L 9.925781 12.84375 L 9.851562 12.855469 L 9.730469 12.804688 Z M 9.71875 12.78125 "/>
<path style=" stroke:none;fill-rule:nonzero;fill:rgb(99.607843%,99.607843%,99.607843%);fill-opacity:1;" d="M 12.671875 12.816406 L 12.730469 12.878906 L 12.816406 12.9375 L 12.855469 12.964844 L 12.757812 12.953125 L 12.683594 12.867188 Z M 12.671875 12.816406 "/>
<path style=" stroke:none;fill-rule:nonzero;fill:rgb(99.607843%,99.607843%,99.607843%);fill-opacity:1;" d="M 14.488281 11.925781 L 14.515625 11.925781 L 14.550781 12.035156 L 14.453125 12.035156 Z M 14.488281 11.925781 "/>
<path style=" stroke:none;fill-rule:nonzero;fill:rgb(99.607843%,99.607843%,99.607843%);fill-opacity:1;" d="M 16.589844 12.855469 L 16.601562 12.878906 L 16.601562 13.039062 L 16.578125 13.023438 L 16.566406 12.988281 L 16.566406 12.890625 Z M 16.589844 12.855469 "/>
<path style=" stroke:none;fill-rule:nonzero;fill:rgb(99.607843%,99.607843%,99.607843%);fill-opacity:1;" d="M 18.542969 11.839844 L 18.566406 11.851562 L 18.578125 11.890625 L 18.578125 12 L 18.53125 12.023438 L 18.542969 11.976562 Z M 18.542969 11.839844 "/>
<path style=" stroke:none;fill-rule:nonzero;fill:rgb(99.607843%,99.607843%,99.607843%);fill-opacity:1;" d="M 6.3125 13.378906 L 6.335938 13.429688 L 6.371094 13.476562 L 6.410156 13.5 L 6.3125 13.5 Z M 6.3125 13.378906 "/>
<path style=" stroke:none;fill-rule:nonzero;fill:rgb(99.607843%,99.607843%,99.607843%);fill-opacity:1;" d="M 13.746094 11.828125 L 13.792969 11.839844 L 13.757812 11.878906 L 13.746094 11.988281 L 13.71875 11.9375 L 13.71875 11.839844 Z M 13.746094 11.828125 "/>
<path style=" stroke:none;fill-rule:nonzero;fill:rgb(99.607843%,99.607843%,99.607843%);fill-opacity:1;" d="M 17.234375 11.890625 L 17.285156 11.914062 L 17.347656 11.988281 L 17.371094 12.0625 L 17.320312 12.011719 L 17.25 11.914062 Z M 17.234375 11.890625 "/>
</g>
</svg>
